<?xml version="1.0" encoding="UTF-8" standalone="no"?>
<!-- Created with Inkscape (http://www.inkscape.org/) -->

<svg
   xmlns:dc="http://purl.org/dc/elements/1.1/"
   xmlns:cc="http://creativecommons.org/ns#"
   xmlns:rdf="http://www.w3.org/1999/02/22-rdf-syntax-ns#"
   xmlns:svg="http://www.w3.org/2000/svg"
   xmlns="http://www.w3.org/2000/svg"
   xmlns:sodipodi="http://sodipodi.sourceforge.net/DTD/sodipodi-0.dtd"
   xmlns:inkscape="http://www.inkscape.org/namespaces/inkscape"
   width="210mm"
   height="298mm"
   viewBox="0 0 210 298"
   version="1.1"
   id="svg8"
   inkscape:version="0.92.1 r15371"
   sodipodi:docname="etiketaktxikiak1gorri.svg">
  <defs
     id="defs2" />
  <sodipodi:namedview
     id="base"
     pagecolor="#ffffff"
     bordercolor="#666666"
     borderopacity="1.0"
     inkscape:pageopacity="0.0"
     inkscape:pageshadow="2"
     inkscape:zoom="0.67"
     inkscape:cx="231.12108"
     inkscape:cy="531.48517"
     inkscape:document-units="mm"
     inkscape:current-layer="layer1"
     showgrid="false"
     inkscape:window-width="1920"
     inkscape:window-height="1001"
     inkscape:window-x="-9"
     inkscape:window-y="-9"
     inkscape:window-maximized="1" />
  <metadata
     id="metadata5">
    <rdf:RDF>
      <cc:Work
         rdf:about="">
        <dc:format>image/svg+xml</dc:format>
        <dc:type
           rdf:resource="http://purl.org/dc/dcmitype/StillImage" />
        <dc:title />
      </cc:Work>
    </rdf:RDF>
  </metadata>
  <g
     inkscape:label="Capa 1"
     inkscape:groupmode="layer"
     id="layer1"
     transform="translate(0,1)"
     style="display:none">
    <rect
       style="opacity:1;fill:#ffffff;fill-opacity:1;stroke:#6f41ff;stroke-width:1.32767057;stroke-linejoin:round;stroke-miterlimit:4;stroke-dasharray:none;stroke-opacity:1"
       id="rect10"
       width="66.771957"
       height="36.01733"
       x="4.9823971"
       y="4.2141337"
       ry="0.051196799" />
    <rect
       style="opacity:1;fill:#ffffff;fill-opacity:1;stroke:#6f41ff;stroke-width:1.32767057;stroke-linejoin:round;stroke-miterlimit:4;stroke-dasharray:none;stroke-opacity:1"
       id="rect10-0"
       width="66.771957"
       height="36.01733"
       x="71.754349"
       y="4.2141356"
       ry="0.051196799" />
    <rect
       style="opacity:1;fill:#ffffff;fill-opacity:1;stroke:#6f41ff;stroke-width:1.32767057;stroke-linejoin:round;stroke-miterlimit:4;stroke-dasharray:none;stroke-opacity:1"
       id="rect10-01"
       width="66.771957"
       height="36.01733"
       x="138.52631"
       y="4.2141356"
       ry="0.051196799" />
    <rect
       style="opacity:1;fill:#ffffff;fill-opacity:1;stroke:#6f41ff;stroke-width:1.32767057;stroke-linejoin:round;stroke-miterlimit:4;stroke-dasharray:none;stroke-opacity:1"
       id="rect10-7"
       width="66.771957"
       height="36.01733"
       x="4.9823947"
       y="40.231464"
       ry="0.051196799" />
    <rect
       style="opacity:1;fill:#ffffff;fill-opacity:1;stroke:#6f41ff;stroke-width:1.32767057;stroke-linejoin:round;stroke-miterlimit:4;stroke-dasharray:none;stroke-opacity:1"
       id="rect10-0-4"
       width="66.771957"
       height="36.01733"
       x="71.754349"
       y="40.231472"
       ry="0.051196799" />
    <rect
       style="opacity:1;fill:#ffffff;fill-opacity:1;stroke:#6f41ff;stroke-width:1.32767057;stroke-linejoin:round;stroke-miterlimit:4;stroke-dasharray:none;stroke-opacity:1"
       id="rect10-01-7"
       width="66.771957"
       height="36.01733"
       x="138.52631"
       y="40.231472"
       ry="0.051196799" />
    <rect
       style="opacity:1;fill:#ffffff;fill-opacity:1;stroke:#6f41ff;stroke-width:1.32767057;stroke-linejoin:round;stroke-miterlimit:4;stroke-dasharray:none;stroke-opacity:1"
       id="rect10-3"
       width="66.771957"
       height="36.01733"
       x="4.9823985"
       y="76.248802"
       ry="0.051196799" />
    <rect
       style="opacity:1;fill:#ffffff;fill-opacity:1;stroke:#6f41ff;stroke-width:1.32767057;stroke-linejoin:round;stroke-miterlimit:4;stroke-dasharray:none;stroke-opacity:1"
       id="rect10-0-5"
       width="66.771957"
       height="36.01733"
       x="71.754349"
       y="76.248802"
       ry="0.051196799" />
    <rect
       style="opacity:1;fill:#ffffff;fill-opacity:1;stroke:#6f41ff;stroke-width:1.32767057;stroke-linejoin:round;stroke-miterlimit:4;stroke-dasharray:none;stroke-opacity:1"
       id="rect10-01-9"
       width="66.771957"
       height="36.01733"
       x="138.52631"
       y="76.248802"
       ry="0.051196799" />
    <rect
       style="opacity:1;fill:#ffffff;fill-opacity:1;stroke:#6f41ff;stroke-width:1.32767057;stroke-linejoin:round;stroke-miterlimit:4;stroke-dasharray:none;stroke-opacity:1"
       id="rect10-7-5"
       width="66.771957"
       height="36.01733"
       x="4.9823947"
       y="112.26614"
       ry="0.051196799" />
    <rect
       style="opacity:1;fill:#ffffff;fill-opacity:1;stroke:#6f41ff;stroke-width:1.32767057;stroke-linejoin:round;stroke-miterlimit:4;stroke-dasharray:none;stroke-opacity:1"
       id="rect10-0-4-5"
       width="66.771957"
       height="36.01733"
       x="71.754349"
       y="112.26614"
       ry="0.051196799" />
    <rect
       style="opacity:1;fill:#ffffff;fill-opacity:1;stroke:#6f41ff;stroke-width:1.32767057;stroke-linejoin:round;stroke-miterlimit:4;stroke-dasharray:none;stroke-opacity:1"
       id="rect10-01-7-1"
       width="66.771957"
       height="36.01733"
       x="138.52631"
       y="112.26614"
       ry="0.051196799" />
    <rect
       style="opacity:1;fill:#ffffff;fill-opacity:1;stroke:#6f41ff;stroke-width:1.32767057;stroke-linejoin:round;stroke-miterlimit:4;stroke-dasharray:none;stroke-opacity:1"
       id="rect10-5"
       width="66.771957"
       height="36.01733"
       x="4.9823928"
       y="148.28348"
       ry="0.051196799" />
    <rect
       style="opacity:1;fill:#ffffff;fill-opacity:1;stroke:#6f41ff;stroke-width:1.32767057;stroke-linejoin:round;stroke-miterlimit:4;stroke-dasharray:none;stroke-opacity:1"
       id="rect10-0-53"
       width="66.771957"
       height="36.01733"
       x="71.754341"
       y="148.28349"
       ry="0.051196799" />
    <rect
       style="opacity:1;fill:#ffffff;fill-opacity:1;stroke:#6f41ff;stroke-width:1.32767057;stroke-linejoin:round;stroke-miterlimit:4;stroke-dasharray:none;stroke-opacity:1"
       id="rect10-01-73"
       width="66.771957"
       height="36.01733"
       x="138.52631"
       y="148.28349"
       ry="0.051196799" />
    <rect
       style="opacity:1;fill:#ffffff;fill-opacity:1;stroke:#6f41ff;stroke-width:1.32767057;stroke-linejoin:round;stroke-miterlimit:4;stroke-dasharray:none;stroke-opacity:1"
       id="rect10-7-8"
       width="66.771957"
       height="36.01733"
       x="4.9823904"
       y="184.30083"
       ry="0.051196799" />
    <rect
       style="opacity:1;fill:#ffffff;fill-opacity:1;stroke:#6f41ff;stroke-width:1.32767057;stroke-linejoin:round;stroke-miterlimit:4;stroke-dasharray:none;stroke-opacity:1"
       id="rect10-0-4-2"
       width="66.771957"
       height="36.01733"
       x="71.754341"
       y="184.30083"
       ry="0.051196799" />
    <rect
       style="opacity:1;fill:#ffffff;fill-opacity:1;stroke:#6f41ff;stroke-width:1.32767057;stroke-linejoin:round;stroke-miterlimit:4;stroke-dasharray:none;stroke-opacity:1"
       id="rect10-01-7-2"
       width="66.771957"
       height="36.01733"
       x="138.52631"
       y="184.30083"
       ry="0.051196799" />
    <rect
       style="opacity:1;fill:#ffffff;fill-opacity:1;stroke:#6f41ff;stroke-width:1.32767057;stroke-linejoin:round;stroke-miterlimit:4;stroke-dasharray:none;stroke-opacity:1"
       id="rect10-3-2"
       width="66.771957"
       height="36.01733"
       x="4.9823942"
       y="220.31816"
       ry="0.051196799" />
    <rect
       style="opacity:1;fill:#ffffff;fill-opacity:1;stroke:#6f41ff;stroke-width:1.32767057;stroke-linejoin:round;stroke-miterlimit:4;stroke-dasharray:none;stroke-opacity:1"
       id="rect10-0-5-6"
       width="66.771957"
       height="36.01733"
       x="71.754341"
       y="220.31816"
       ry="0.051196799" />
    <rect
       style="opacity:1;fill:#ffffff;fill-opacity:1;stroke:#6f41ff;stroke-width:1.32767057;stroke-linejoin:round;stroke-miterlimit:4;stroke-dasharray:none;stroke-opacity:1"
       id="rect10-01-9-1"
       width="66.771957"
       height="36.01733"
       x="138.52631"
       y="220.31816"
       ry="0.051196799" />
    <rect
       style="opacity:1;fill:#ffffff;fill-opacity:1;stroke:#6f41ff;stroke-width:1.32767057;stroke-linejoin:round;stroke-miterlimit:4;stroke-dasharray:none;stroke-opacity:1"
       id="rect10-7-5-2"
       width="66.771957"
       height="36.01733"
       x="4.9823904"
       y="256.33551"
       ry="0.051196799" />
    <rect
       style="opacity:1;fill:#ffffff;fill-opacity:1;stroke:#6f41ff;stroke-width:1.32767057;stroke-linejoin:round;stroke-miterlimit:4;stroke-dasharray:none;stroke-opacity:1"
       id="rect10-0-4-5-4"
       width="66.771957"
       height="36.01733"
       x="71.754341"
       y="256.33551"
       ry="0.051196799" />
    <rect
       style="opacity:1;fill:#ffffff;fill-opacity:1;stroke:#6f41ff;stroke-width:1.32767057;stroke-linejoin:round;stroke-miterlimit:4;stroke-dasharray:none;stroke-opacity:1"
       id="rect10-01-7-1-8"
       width="66.771957"
       height="36.01733"
       x="138.52631"
       y="256.33551"
       ry="0.051196799" />
  </g>
  <g
     inkscape:groupmode="layer"
     id="layer2"
     inkscape:label="batak">
    <path
       d="m 46.152176,6.8964754 14.426007,12.3172856 1.576698,12.812142 -37.803639,0.0551 -1.226283,-9.965494 30.084946,-0.327132 -9.164504,-9.523957 z"
       id="path4"
       style="fill:#ff0000;fill-opacity:1;fill-rule:evenodd;stroke-width:0.92129421"
       inkscape:connector-curvature="0" />
    <path
       d="m 25.272712,27.668961 -5.983371,9.960568 -8.381299,-4.579597 -0.9373035,2.665542 M 24.571031,26.165403 14.764539,24.12215 9.9273205,14.539985 l -2.429571,1.48516"
       id="path6"
       style="fill:none;stroke:#ff0000;stroke-width:2.02316236;stroke-linecap:round;stroke-linejoin:round;stroke-opacity:1"
       inkscape:connector-curvature="0" />
    <path
       d="m 118.5835,7.0522689 14.426,12.3172861 1.5767,12.812142 -37.803639,0.0551 -1.226283,-9.965494 30.084942,-0.327132 -9.1645,-9.523957 z"
       id="path4-1"
       style="fill:#ff0000;fill-opacity:1;fill-rule:evenodd;stroke-width:0.92129421"
       inkscape:connector-curvature="0" />
    <path
       d="m 97.704031,27.824755 -5.983371,9.960567 -8.381299,-4.579596 -0.937303,2.665542 m 14.600292,-9.550071 -9.806492,-2.043253 -4.837218,-9.582165 -2.429571,1.48516"
       id="path6-9"
       style="fill:none;stroke:#ff0000;stroke-width:2.02316236;stroke-linecap:round;stroke-linejoin:round;stroke-opacity:1"
       inkscape:connector-curvature="0" />
    <path
       d="m 184.27315,7.0522694 14.42601,12.3172856 1.5767,12.812142 -37.80364,0.0551 -1.22628,-9.965494 30.08494,-0.327132 -9.1645,-9.523958 z"
       id="path4-3"
       style="fill:#ff0000;fill-opacity:1;fill-rule:evenodd;stroke-width:0.92129421"
       inkscape:connector-curvature="0" />
    <path
       d="m 163.39369,27.824755 -5.98337,9.960567 -8.3813,-4.579596 -0.93731,2.665542 m 14.6003,-9.550071 -9.8065,-2.043253 -4.83721,-9.582166 -2.42957,1.48516"
       id="path6-3"
       style="fill:none;stroke:#ff0000;stroke-width:2.02316236;stroke-linecap:round;stroke-linejoin:round;stroke-opacity:1"
       inkscape:connector-curvature="0" />
    <path
       d="m 47.486554,43.138912 14.426007,12.317286 1.576697,12.812142 -37.803639,0.0551 -1.226283,-9.965494 30.084947,-0.327132 -9.164505,-9.523958 z"
       id="path4-16"
       style="fill:#ff0000;fill-opacity:1;fill-rule:evenodd;stroke-width:0.92129421"
       inkscape:connector-curvature="0" />
    <path
       d="m 26.607089,63.911398 -5.983371,9.960567 -8.381299,-4.579596 -0.937303,2.665542 m 14.600292,-9.550071 -9.806492,-2.043253 -4.837218,-9.582166 -2.4295715,1.48516"
       id="path6-7"
       style="fill:none;stroke:#ff0000;stroke-width:2.02316236;stroke-linecap:round;stroke-linejoin:round;stroke-opacity:1"
       inkscape:connector-curvature="0" />
    <path
       d="m 119.91788,43.294705 14.42601,12.317287 1.57669,12.812142 -37.803642,0.0551 -1.22628,-9.965494 30.084942,-0.327132 -9.1645,-9.523958 z"
       id="path4-1-5"
       style="fill:#ff0000;fill-opacity:1;fill-rule:evenodd;stroke-width:0.92129421"
       inkscape:connector-curvature="0" />
    <path
       d="m 99.038408,64.067192 -5.98337,9.960567 -8.381299,-4.579596 -0.937303,2.665542 m 14.600292,-9.550071 -9.806491,-2.043253 -4.837219,-9.582166 -2.42957,1.48516"
       id="path6-9-0"
       style="fill:none;stroke:#ff0000;stroke-width:2.02316236;stroke-linecap:round;stroke-linejoin:round;stroke-opacity:1"
       inkscape:connector-curvature="0" />
    <path
       d="m 185.60754,43.294706 14.426,12.317286 1.5767,12.812142 -37.80364,0.0551 -1.22628,-9.965494 30.08495,-0.327132 -9.16451,-9.523959 z"
       id="path4-3-3"
       style="fill:#ff0000;fill-opacity:1;fill-rule:evenodd;stroke-width:0.92129421"
       inkscape:connector-curvature="0" />
    <path
       d="m 164.72807,64.067192 -5.98337,9.960567 -8.38129,-4.579596 -0.93731,2.665542 m 14.6003,-9.550071 -9.8065,-2.043253 -4.83721,-9.582167 -2.42958,1.48516"
       id="path6-3-2"
       style="fill:none;stroke:#ff0000;stroke-width:2.02316236;stroke-linecap:round;stroke-linejoin:round;stroke-opacity:1"
       inkscape:connector-curvature="0" />
    <path
       d="m 46.295428,78.720251 14.42601,12.317286 1.5767,12.812143 -37.803641,0.0551 -1.226283,-9.965495 30.084944,-0.327132 -9.1645,-9.523958 z"
       id="path4-36"
       style="fill:#ff0000;fill-opacity:1;fill-rule:evenodd;stroke-width:0.92129421"
       inkscape:connector-curvature="0" />
    <path
       d="m 25.415967,99.492737 -5.983371,9.960563 -8.381299,-4.57959 -0.937303,2.66554 M 24.714286,97.989179 14.907794,95.945926 10.070576,86.36376 7.6410045,87.84892"
       id="path6-74"
       style="fill:none;stroke:#ff0000;stroke-width:2.02316236;stroke-linecap:round;stroke-linejoin:round;stroke-opacity:1"
       inkscape:connector-curvature="0" />
    <path
       d="m 118.72675,78.876044 14.42601,12.317287 1.57669,12.812139 -37.803637,0.0551 -1.22628,-9.965491 30.084937,-0.327132 -9.1645,-9.523958 z"
       id="path4-1-7"
       style="fill:#ff0000;fill-opacity:1;fill-rule:evenodd;stroke-width:0.92129421"
       inkscape:connector-curvature="0" />
    <path
       d="m 97.847293,99.648531 -5.98338,9.960569 -8.3813,-4.5796 -0.9373,2.66554 m 14.60029,-9.550067 -9.80649,-2.043253 -4.83722,-9.582166 -2.42957,1.48516"
       id="path6-9-3"
       style="fill:none;stroke:#ff0000;stroke-width:2.02316236;stroke-linecap:round;stroke-linejoin:round;stroke-opacity:1"
       inkscape:connector-curvature="0" />
    <path
       d="m 184.41641,78.876045 14.426,12.317286 1.5767,12.812139 -37.80364,0.0551 -1.22628,-9.965491 30.08495,-0.327132 -9.16451,-9.523959 z"
       id="path4-3-0"
       style="fill:#ff0000;fill-opacity:1;fill-rule:evenodd;stroke-width:0.92129421"
       inkscape:connector-curvature="0" />
    <path
       d="m 163.53694,99.648531 -5.98337,9.960569 -8.38129,-4.5796 -0.93731,2.66554 m 14.6003,-9.550067 -9.8065,-2.043253 -4.83721,-9.582167 -2.42958,1.48516"
       id="path6-3-1"
       style="fill:none;stroke:#ff0000;stroke-width:2.02316236;stroke-linecap:round;stroke-linejoin:round;stroke-opacity:1"
       inkscape:connector-curvature="0" />
    <path
       d="m 47.629808,114.96269 14.42601,12.31728 1.5767,12.81215 -37.803644,0.0551 -1.226283,-9.9655 30.084947,-0.32713 -9.1645,-9.52396 z"
       id="path4-16-2"
       style="fill:#ff0000;fill-opacity:1;fill-rule:evenodd;stroke-width:0.92129421"
       inkscape:connector-curvature="0" />
    <path
       d="m 26.750344,135.73517 -5.983371,9.96057 -8.381299,-4.5796 -0.937303,2.66555 m 14.600292,-9.55008 -9.806492,-2.04325 -4.837218,-9.58216 -2.4295715,1.48516"
       id="path6-7-8"
       style="fill:none;stroke:#ff0000;stroke-width:2.02316236;stroke-linecap:round;stroke-linejoin:round;stroke-opacity:1"
       inkscape:connector-curvature="0" />
    <path
       d="m 120.06113,115.11848 14.42601,12.31729 1.5767,12.81214 -37.803647,0.0551 -1.22628,-9.9655 30.084947,-0.32713 -9.1645,-9.52396 z"
       id="path4-1-5-7"
       style="fill:#ff0000;fill-opacity:1;fill-rule:evenodd;stroke-width:0.92129421"
       inkscape:connector-curvature="0" />
    <path
       d="m 99.181663,135.89097 -5.98337,9.96057 -8.3813,-4.5796 -0.9373,2.66554 m 14.60029,-9.55007 -9.80649,-2.04325 -4.83722,-9.58217 -2.42957,1.48516"
       id="path6-9-0-1"
       style="fill:none;stroke:#ff0000;stroke-width:2.02316236;stroke-linecap:round;stroke-linejoin:round;stroke-opacity:1"
       inkscape:connector-curvature="0" />
    <path
       d="m 185.75079,115.11848 14.42601,12.31729 1.5767,12.81214 -37.80364,0.0551 -1.22628,-9.9655 30.08495,-0.32713 -9.16451,-9.52396 z"
       id="path4-3-3-4"
       style="fill:#ff0000;fill-opacity:1;fill-rule:evenodd;stroke-width:0.92129421"
       inkscape:connector-curvature="0" />
    <path
       d="m 164.87133,135.89097 -5.98337,9.96057 -8.3813,-4.5796 -0.93731,2.66554 m 14.60031,-9.55007 -9.80651,-2.04325 -4.83721,-9.58217 -2.42957,1.48516"
       id="path6-3-2-6"
       style="fill:none;stroke:#ff0000;stroke-width:2.02316236;stroke-linecap:round;stroke-linejoin:round;stroke-opacity:1"
       inkscape:connector-curvature="0" />
    <path
       d="m 46.557399,151.28419 14.426,12.31729 1.5767,12.81214 -37.80364,0.0551 -1.22628,-9.96549 30.08495,-0.32714 -9.16451,-9.52395 z"
       id="path4-8"
       style="fill:#ff0000;fill-opacity:1;fill-rule:evenodd;stroke-width:0.92129421"
       inkscape:connector-curvature="0" />
    <path
       d="m 25.677929,172.05668 -5.98337,9.96056 -8.3813,-4.57959 -0.9373,2.66554 m 14.60029,-9.55007 -9.80649,-2.04325 -4.83722,-9.58217 -2.4295705,1.48516"
       id="path6-2"
       style="fill:none;stroke:#ff0000;stroke-width:2.02316236;stroke-linecap:round;stroke-linejoin:round;stroke-opacity:1"
       inkscape:connector-curvature="0" />
    <path
       d="m 118.98871,151.43999 14.42601,12.31728 1.57669,12.81214 -37.803626,0.0551 -1.22629,-9.96549 30.084936,-0.32713 -9.1645,-9.52396 z"
       id="path4-1-3"
       style="fill:#ff0000;fill-opacity:1;fill-rule:evenodd;stroke-width:0.92129421"
       inkscape:connector-curvature="0" />
    <path
       d="m 98.109254,172.21247 -5.98337,9.96057 -8.3813,-4.5796 -0.93731,2.66554 m 14.60029,-9.55007 -9.80649,-2.04325 -4.83721,-9.58216 -2.42957,1.48516"
       id="path6-9-38"
       style="fill:none;stroke:#ff0000;stroke-width:2.02316236;stroke-linecap:round;stroke-linejoin:round;stroke-opacity:1"
       inkscape:connector-curvature="0" />
    <path
       d="m 184.67837,151.43999 14.426,12.31728 1.5767,12.81214 -37.80364,0.0551 -1.22628,-9.96549 30.08495,-0.32713 -9.16451,-9.52396 z"
       id="path4-3-5"
       style="fill:#ff0000;fill-opacity:1;fill-rule:evenodd;stroke-width:0.92129421"
       inkscape:connector-curvature="0" />
    <path
       d="m 163.7989,172.21247 -5.98337,9.96057 -8.38129,-4.5796 -0.93731,2.66554 m 14.6003,-9.55007 -9.8065,-2.04325 -4.83721,-9.58217 -2.42958,1.48516"
       id="path6-3-5"
       style="fill:none;stroke:#ff0000;stroke-width:2.02316236;stroke-linecap:round;stroke-linejoin:round;stroke-opacity:1"
       inkscape:connector-curvature="0" />
    <path
       d="m 47.891769,187.52663 14.42601,12.31728 1.5767,12.81215 -37.80364,0.0551 -1.22628,-9.9655 30.08494,-0.32713 -9.1645,-9.52396 z"
       id="path4-16-7"
       style="fill:#ff0000;fill-opacity:1;fill-rule:evenodd;stroke-width:0.92129421"
       inkscape:connector-curvature="0" />
    <path
       d="m 27.012309,208.29911 -5.98337,9.96057 -8.3813,-4.57959 -0.9373,2.66554 m 14.60029,-9.55007 -9.80649,-2.04326 -4.83722,-9.58216 -2.4295705,1.48516"
       id="path6-7-1"
       style="fill:none;stroke:#ff0000;stroke-width:2.02316236;stroke-linecap:round;stroke-linejoin:round;stroke-opacity:1"
       inkscape:connector-curvature="0" />
    <path
       d="m 120.32309,187.68242 14.42601,12.31729 1.5767,12.81214 -37.803646,0.0551 -1.22628,-9.96549 30.084946,-0.32714 -9.1645,-9.52396 z"
       id="path4-1-5-9"
       style="fill:#ff0000;fill-opacity:1;fill-rule:evenodd;stroke-width:0.92129421"
       inkscape:connector-curvature="0" />
    <path
       d="m 99.443624,208.45491 -5.98337,9.96057 -8.3813,-4.5796 -0.9373,2.66554 m 14.60029,-9.55007 -9.80649,-2.04325 -4.83722,-9.58217 -2.42957,1.48516"
       id="path6-9-0-4"
       style="fill:none;stroke:#ff0000;stroke-width:2.02316236;stroke-linecap:round;stroke-linejoin:round;stroke-opacity:1"
       inkscape:connector-curvature="0" />
    <path
       d="m 186.01275,187.68242 14.42601,12.31729 1.5767,12.81214 -37.80364,0.0551 -1.22628,-9.96549 30.08495,-0.32714 -9.16451,-9.52396 z"
       id="path4-3-3-8"
       style="fill:#ff0000;fill-opacity:1;fill-rule:evenodd;stroke-width:0.92129421"
       inkscape:connector-curvature="0" />
    <path
       d="m 165.13329,208.45491 -5.98337,9.96057 -8.3813,-4.5796 -0.93731,2.66554 m 14.60031,-9.55007 -9.80651,-2.04325 -4.83721,-9.58217 -2.42957,1.48516"
       id="path6-3-2-4"
       style="fill:none;stroke:#ff0000;stroke-width:2.02316236;stroke-linecap:round;stroke-linejoin:round;stroke-opacity:1"
       inkscape:connector-curvature="0" />
    <path
       d="m 46.819359,223.32422 14.426007,12.31728 1.576697,12.81214 -37.803639,0.0551 -1.226283,-9.96549 30.084947,-0.32713 -9.164505,-9.52396 z"
       id="path4-6"
       style="fill:#ff0000;fill-opacity:1;fill-rule:evenodd;stroke-width:0.92129421"
       inkscape:connector-curvature="0" />
    <path
       d="m 25.939894,244.0967 -5.983371,9.96057 -8.381299,-4.5796 -0.937303,2.66554 m 14.600292,-9.55007 -9.806492,-2.04325 -4.837218,-9.58216 -2.4295715,1.48516"
       id="path6-0"
       style="fill:none;stroke:#ff0000;stroke-width:2.02316236;stroke-linecap:round;stroke-linejoin:round;stroke-opacity:1"
       inkscape:connector-curvature="0" />
    <path
       d="m 119.25068,223.48001 14.42601,12.31729 1.57669,12.81214 -37.803637,0.0551 -1.226283,-9.9655 30.08494,-0.32713 -9.1645,-9.52396 z"
       id="path4-1-1"
       style="fill:#ff0000;fill-opacity:1;fill-rule:evenodd;stroke-width:0.92129421"
       inkscape:connector-curvature="0" />
    <path
       d="m 98.371215,244.2525 -5.983372,9.96056 -8.381299,-4.57959 -0.937303,2.66554 m 14.600291,-9.55007 -9.80649,-2.04326 -4.837219,-9.58216 -2.42957,1.48516"
       id="path6-9-8"
       style="fill:none;stroke:#ff0000;stroke-width:2.02316236;stroke-linecap:round;stroke-linejoin:round;stroke-opacity:1"
       inkscape:connector-curvature="0" />
    <path
       d="m 184.94033,223.48001 14.426,12.31729 1.5767,12.81214 -37.80364,0.0551 -1.22628,-9.9655 30.08495,-0.32713 -9.16451,-9.52396 z"
       id="path4-3-6"
       style="fill:#ff0000;fill-opacity:1;fill-rule:evenodd;stroke-width:0.92129421"
       inkscape:connector-curvature="0" />
    <path
       d="m 164.06086,244.2525 -5.98337,9.96056 -8.38128,-4.57959 -0.93731,2.66554 m 14.60029,-9.55007 -9.80649,-2.04326 -4.83721,-9.58216 -2.42958,1.48516"
       id="path6-3-0"
       style="fill:none;stroke:#ff0000;stroke-width:2.02316236;stroke-linecap:round;stroke-linejoin:round;stroke-opacity:1"
       inkscape:connector-curvature="0" />
    <path
       d="m 48.153735,259.56665 14.426009,12.31729 1.576698,12.81214 -37.803641,0.0551 -1.226283,-9.96549 30.084948,-0.32714 -9.164505,-9.52395 z"
       id="path4-16-70"
       style="fill:#ff0000;fill-opacity:1;fill-rule:evenodd;stroke-width:0.92129421"
       inkscape:connector-curvature="0" />
    <path
       d="m 27.274271,280.33914 -5.983371,9.96057 -8.381299,-4.5796 -0.937303,2.66554 m 14.600292,-9.55007 -9.806492,-2.04325 -4.837218,-9.58217 -2.4295715,1.48516"
       id="path6-7-9"
       style="fill:none;stroke:#ff0000;stroke-width:2.02316236;stroke-linecap:round;stroke-linejoin:round;stroke-opacity:1"
       inkscape:connector-curvature="0" />
    <path
       d="m 120.58506,259.72244 14.42601,12.31729 1.5767,12.81214 -37.803649,0.0551 -1.22628,-9.96549 30.084949,-0.32713 -9.1645,-9.52396 z"
       id="path4-1-5-97"
       style="fill:#ff0000;fill-opacity:1;fill-rule:evenodd;stroke-width:0.92129421"
       inkscape:connector-curvature="0" />
    <path
       d="m 99.705591,280.49493 -5.98337,9.96057 -8.381299,-4.5796 -0.937305,2.66555 m 14.600293,-9.55008 -9.80649,-2.04325 -4.837218,-9.58216 -2.429571,1.48515"
       id="path6-9-0-9"
       style="fill:none;stroke:#ff0000;stroke-width:2.02316236;stroke-linecap:round;stroke-linejoin:round;stroke-opacity:1"
       inkscape:connector-curvature="0" />
    <path
       d="m 186.27471,259.72245 14.42601,12.31728 1.5767,12.81214 -37.80364,0.0551 -1.22628,-9.96549 30.08495,-0.32713 -9.16451,-9.52396 z"
       id="path4-3-3-2"
       style="fill:#ff0000;fill-opacity:1;fill-rule:evenodd;stroke-width:0.92129421"
       inkscape:connector-curvature="0" />
    <path
       d="m 165.39525,280.49493 -5.98337,9.96057 -8.38129,-4.5796 -0.93731,2.66555 m 14.6003,-9.55008 -9.8065,-2.04325 -4.83721,-9.58216 -2.42957,1.48515"
       id="path6-3-2-9"
       style="fill:none;stroke:#ff0000;stroke-width:2.02316236;stroke-linecap:round;stroke-linejoin:round;stroke-opacity:1"
       inkscape:connector-curvature="0" />
  </g>
</svg>
